<?xml version="1.0" standalone="no"?>
<!DOCTYPE svg PUBLIC "-//W3C//DTD SVG 20010904//EN"
 "http://www.w3.org/TR/2001/REC-SVG-20010904/DTD/svg10.dtd">
<svg version="1.0" xmlns="http://www.w3.org/2000/svg"
 width="900.000000pt" height="900.000000pt" viewBox="0 0 900.000000 900.000000"
 preserveAspectRatio="xMidYMid meet">
<metadata>
Created by potrace 1.10, written by Peter Selinger 2001-2011
</metadata>
<g transform="translate(0.000000,900.000000) scale(0.100000,-0.100000)"
fill="#000000" stroke="none">
<path d="M4515 8572 c-26 -5 -79 -49 -185 -154 -47 -45 -101 -96 -120 -112
-19 -17 -82 -73 -140 -125 -58 -53 -141 -127 -185 -166 -128 -113 -194 -172
-300 -270 -55 -51 -125 -114 -155 -140 -30 -26 -89 -80 -130 -119 -41 -40
-138 -130 -215 -201 -77 -71 -183 -170 -236 -219 -53 -50 -122 -113 -154 -140
-100 -86 -99 -114 7 -206 40 -34 118 -106 173 -159 55 -53 194 -181 309 -286
116 -104 251 -228 300 -274 50 -46 107 -98 126 -116 19 -18 68 -60 108 -93 77
-64 223 -196 302 -272 25 -25 62 -58 81 -74 85 -73 264 -241 267 -252 3 -10
-315 -312 -409 -389 -72 -59 -255 -221 -334 -296 -44 -41 -138 -127 -210 -189
-71 -62 -175 -157 -231 -209 -140 -134 -208 -196 -299 -271 -43 -36 -125 -107
-182 -158 l-103 -94 2 -1676 3 -1677 123 -3 c94 -2 122 0 122 10 0 7 0 690 0
1519 0 1655 -3 1573 57 1519 194 -175 385 -353 653 -605 36 -34 112 -104 170
-156 57 -52 126 -115 153 -141 27 -26 63 -59 80 -74 18 -14 77 -69 132 -123
55 -53 118 -111 140 -129 22 -19 96 -86 164 -150 68 -64 129 -122 135 -127 6
-6 45 -42 86 -80 205 -190 324 -300 419 -386 58 -52 193 -177 300 -279 207
-196 225 -212 446 -415 144 -133 181 -167 300 -270 142 -124 121 -115 262
-115 106 0 125 2 130 17 4 10 -2 22 -18 34 -27 21 -31 25 -174 160 -55 52
-159 148 -230 214 -161 149 -251 233 -335 311 -36 33 -87 80 -115 105 -27 24
-97 88 -155 144 -58 55 -186 174 -285 265 -226 208 -379 351 -429 402 l-38 40
48 50 c27 28 101 96 164 152 63 55 178 159 255 231 77 71 158 146 180 166 22
20 72 65 110 100 39 35 93 84 120 108 130 115 236 212 300 273 39 37 88 82
110 100 123 103 462 425 470 446 3 7 2 19 -2 26 -14 22 -448 427 -593 552 -24
22 -74 66 -110 99 -36 34 -108 99 -160 144 -52 46 -140 127 -195 180 -56 53
-121 114 -145 135 -25 22 -147 132 -271 245 -124 113 -266 242 -314 286 -49
44 -96 87 -105 95 -9 8 -31 28 -50 44 -35 29 -180 162 -360 331 -53 50 -179
164 -280 255 -101 91 -220 199 -264 240 -45 42 -133 123 -196 180 -63 57 -170
155 -236 218 -67 62 -132 120 -145 129 -31 21 -109 95 -109 104 0 7 187 191
259 255 24 21 60 53 78 69 19 17 123 112 231 211 108 100 225 204 259 233 35
28 118 104 185 169 68 65 161 151 208 191 47 41 108 94 135 120 28 25 79 71
115 101 35 30 83 72 105 92 22 21 47 38 55 38 8 0 44 -22 79 -50 83 -64 151
-126 401 -361 185 -174 168 -159 415 -378 116 -102 233 -208 260 -236 46 -46
186 -171 260 -233 17 -13 66 -60 111 -104 81 -79 81 -80 148 -88 36 -4 93 -6
126 -3 50 5 60 9 60 24 0 24 -100 130 -193 206 -39 32 -120 103 -181 158 -60
55 -154 139 -208 187 -53 47 -108 97 -120 110 -19 19 -244 228 -284 263 -140
123 -293 264 -479 441 -88 83 -189 175 -225 204 -36 29 -85 72 -110 95 -49 46
-64 54 -95 47z m112 -3610 c32 -27 103 -91 158 -143 56 -52 139 -128 185 -169
46 -41 116 -104 154 -140 107 -100 115 -107 251 -230 71 -63 192 -173 269
-245 77 -71 164 -152 195 -180 123 -111 260 -242 279 -266 10 -14 -10 -37
-146 -165 -87 -82 -176 -165 -198 -184 -21 -19 -86 -77 -145 -130 -58 -52
-118 -106 -135 -119 -82 -69 -396 -354 -534 -486 -58 -55 -161 -152 -230 -215
-69 -63 -140 -132 -159 -152 -18 -21 -39 -38 -45 -38 -6 0 -65 48 -130 108
-66 59 -135 120 -155 136 -20 17 -79 71 -131 122 -52 50 -144 136 -204 190
-60 55 -227 207 -370 338 -144 132 -308 283 -366 335 -58 53 -123 113 -145
133 -22 20 -52 47 -67 60 -16 13 -28 28 -28 34 0 16 122 127 340 309 55 47
147 129 389 351 97 88 253 227 346 309 153 133 223 196 405 360 103 94 140
125 150 125 5 0 35 -22 67 -48z"/>
</g>
</svg>
